Coordinates
version=1
nRows=11
nColumns=63
inDegrees=yes

Units are S.I. units (second, meters, Newtons, ...)
If the header above contains a line with 'inDegrees', this indicates whether rotational values are in degrees (yes) or radians (no).

endheader
time	pelvis_tilt	pelvis_list	pelvis_rotation	pelvis_tx	pelvis_ty	pelvis_tz	hip_flexion_r	hip_adduction_r	hip_rotation_r	knee_angle_r	knee_angle_r_beta	ankle_angle_r	subtalar_angle_r	mtp_angle_r	hip_flexion_l	hip_adduction_l	hip_rotation_l	knee_angle_l	knee_angle_l_beta	ankle_angle_l	subtalar_angle_l	mtp_angle_l	L5_S1_Flex_Ext	L5_S1_Lat_Bending	L5_S1_axial_rotation	L4_L5_Flex_Ext	L4_L5_Lat_Bending	L4_L5_axial_rotation	L3_L4_Flex_Ext	L3_L4_Lat_Bending	L3_L4_axial_rotation	L2_L3_Flex_Ext	L2_L3_Lat_Bending	L2_L3_axial_rotation	L1_L2_Flex_Ext	L1_L2_Lat_Bending	L1_L2_axial_rotation	L1_T12_Flex_Ext	L1_T12_Lat_Bending	L1_T12_axial_rotation	Abs_r3	Abs_r2	Abs_r1	Abs_t1	Abs_t2	neck_flexion	neck_bending	neck_rotation	arm_flex_r	arm_add_r	arm_rot_r	elbow_flex_r	pro_sup_r	wrist_flex_r	wrist_dev_r	arm_flex_l	arm_add_l	arm_rot_l	elbow_flex_l	pro_sup_l	wrist_flex_l	wrist_dev_l
1.300000	1.493165	-1.799612	80.770911	0.213064	0.972164	0.458298	1.359184	4.873093	5.303547	1.373230	0.023967	19.992735	-13.523356	0.000000	0.449542	-3.744513	9.498718	0.380367	0.006639	24.349646	-8.041483	0.000000	-0.080454	0.028363	2.340773	-0.149411	0.037723	2.487071	-0.132177	0.068962	2.487071	-0.091951	0.068962	2.048176	-0.074709	0.057838	1.901878	-0.045971	0.043935	1.755580	-0.574673	0.320851	13.018677	0.000000	0.000000	12.381734	-2.447069	-9.247340	-4.741623	-11.901442	20.949636	34.660540	72.563062	-5.102830	8.435163	9.754562	-15.954502	70.686572	21.751317	78.427183	-5.511485	6.040516
1.316667	1.578209	-1.564046	80.709387	0.213230	0.972485	0.457640	1.021366	4.904090	5.699769	1.276910	0.022286	20.045783	-13.605288	0.000000	0.137802	-3.800820	9.185759	0.372527	0.006502	24.467635	-7.755345	0.000000	-0.091583	0.045321	2.370088	-0.170079	0.060277	2.518218	-0.150462	0.110194	2.518218	-0.104671	0.110194	2.073827	-0.085044	0.092419	1.925696	-0.052331	0.070202	1.777566	-0.654171	0.512682	13.181716	0.000000	0.000000	12.012685	-2.882119	-9.520023	-4.772907	-11.907487	20.586086	34.908765	73.475176	-5.201674	8.122258	10.770218	-15.548741	75.646816	20.950804	77.365174	-5.316884	6.026792
1.333333	1.643180	-1.327391	80.646896	0.213413	0.972798	0.456925	0.686936	4.912117	6.160910	1.173201	0.020476	20.131797	-13.734678	0.000000	-0.171441	-3.837166	9.008720	0.362880	0.006333	24.572639	-7.610114	0.000000	-0.102460	0.060089	2.394094	-0.190278	0.079919	2.543725	-0.168332	0.146101	2.543725	-0.117102	0.146101	2.094833	-0.095144	0.122534	1.945202	-0.058546	0.093078	1.795571	-0.731861	0.679741	13.315235	0.000000	0.000000	11.721240	-3.340311	-9.821434	-4.815420	-11.920832	20.281828	35.147002	74.145041	-5.361423	7.886004	11.682207	-15.182072	80.338299	20.280997	76.548354	-5.252742	5.984075
1.350000	1.693663	-1.110718	80.589766	0.213606	0.973080	0.456241	0.382588	4.906606	6.673162	1.062159	0.018538	20.276435	-13.870200	0.000000	-0.448370	-3.864380	8.896591	0.352376	0.006150	24.710584	-7.479673	0.000000	-0.113427	0.073450	2.409970	-0.210645	0.097688	2.560593	-0.186349	0.178586	2.560593	-0.129635	0.178586	2.108724	-0.105328	0.149779	1.958101	-0.064812	0.113774	1.807478	-0.810195	0.830878	13.403532	0.000000	0.000000	11.540562	-3.803798	-10.110847	-4.843142	-11.922300	19.987919	35.341646	74.772916	-5.524749	7.706574	12.528252	-14.859746	84.853591	19.699944	75.819921	-5.391900	5.826871
1.366667	1.720936	-0.919299	80.523849	0.213828	0.973337	0.455552	0.117715	4.879830	7.252330	0.955543	0.016677	20.485743	-14.022054	0.000000	-0.691415	-3.875077	8.886979	0.341074	0.005953	24.885758	-7.394620	0.000000	-0.122961	0.084909	2.414455	-0.228350	0.112929	2.565359	-0.202012	0.206447	2.565359	-0.140532	0.206447	2.112648	-0.114181	0.173146	1.961745	-0.070260	0.131524	1.810841	-0.878295	0.960506	13.428476	0.000000	0.000000	11.408285	-4.233540	-10.283767	-4.829236	-11.907586	19.763376	35.454484	75.422323	-5.650362	7.596242	13.248177	-14.580798	88.933645	19.194520	75.173094	-5.758240	5.522886
1.383333	1.742740	-0.756545	80.442606	0.214060	0.973592	0.454881	-0.110968	4.851302	7.875747	0.840072	0.014662	20.708694	-14.205015	0.000000	-0.900361	-3.883858	8.952645	0.327620	0.005718	25.059055	-7.390187	0.000000	-0.131710	0.096643	2.411859	-0.244598	0.128535	2.562600	-0.216386	0.234978	2.562600	-0.150531	0.234978	2.110376	-0.122306	0.197075	1.959635	-0.075259	0.149700	1.808894	-0.940789	1.093246	13.414034	0.000000	0.000000	11.295498	-4.648045	-10.394614	-4.785750	-11.886969	19.613587	35.481851	76.040576	-5.769432	7.449523	13.849691	-14.318079	92.507478	18.744537	74.676584	-6.229418	5.164153
1.400000	1.746815	-0.645431	80.329381	0.214381	0.973787	0.454222	-0.258850	4.817002	8.507995	0.761825	0.013296	21.007084	-14.360774	0.000000	-1.052220	-3.886493	9.017429	0.314221	0.005484	25.275938	-7.375543	0.000000	-0.136296	0.106951	2.401802	-0.253115	0.142244	2.551914	-0.223920	0.260040	2.551914	-0.155772	0.260040	2.101576	-0.126564	0.218094	1.951464	-0.077879	0.165667	1.801351	-0.973546	1.209847	13.358101	0.000000	0.000000	11.224651	-5.022757	-10.405658	-4.692796	-11.861237	19.618361	35.423589	76.611047	-5.855217	7.312529	14.293055	-14.095442	95.604118	18.398796	74.412269	-6.959710	4.680149
1.416667	1.755989	-0.548313	80.212015	0.214707	0.974000	0.453603	-0.388845	4.790911	9.082966	0.678505	0.011842	21.301215	-14.451662	0.000000	-1.184044	-3.898757	9.110937	0.300943	0.005252	25.487410	-7.372493	0.000000	-0.143343	0.118067	2.393632	-0.266203	0.157029	2.543234	-0.235499	0.287068	2.543234	-0.163827	0.287068	2.094428	-0.133109	0.240762	1.944826	-0.081906	0.182886	1.795224	-1.023888	1.335596	13.312664	0.000000	0.000000	11.182692	-5.382654	-10.452461	-4.587042	-11.837971	19.712450	35.306846	76.977207	-5.993363	7.100934	14.681731	-13.890298	98.200428	18.110752	74.369595	-7.557363	4.336896
1.433333	1.753759	-0.475978	80.047060	0.215120	0.974197	0.453018	-0.481290	4.762452	9.604179	0.610125	0.010649	21.572377	-14.486991	0.000000	-1.290730	-3.904397	9.096387	0.287820	0.005023	25.705806	-7.311537	0.000000	-0.150407	0.127247	2.397793	-0.279320	0.169239	2.547655	-0.247103	0.309389	2.547655	-0.171900	0.309389	2.098069	-0.139668	0.259483	1.948207	-0.085942	0.197106	1.798345	-1.074340	1.439448	13.335806	0.000000	0.000000	11.187149	-5.724873	-10.615977	-4.488996	-11.799418	19.780287	35.163737	77.225914	-6.056185	6.935312	15.004414	-13.703428	100.426565	17.892244	74.543735	-8.212599	4.064524
1.450000	1.757760	-0.421709	79.894595	0.215553	0.974383	0.452480	-0.547774	4.747069	9.882122	0.563367	0.009833	21.877725	-14.258331	0.000000	-1.373080	-3.921777	9.348766	0.274897	0.004798	25.847439	-7.629860	0.000000	-0.157396	0.136707	2.400673	-0.292300	0.181820	2.550715	-0.258586	0.332388	2.550715	-0.179888	0.332388	2.100589	-0.146158	0.278772	1.950547	-0.089936	0.211758	1.800505	-1.124263	1.546452	13.351824	0.000000	0.000000	11.192456	-6.023098	-10.792730	-4.364103	-11.785681	20.048291	34.979077	77.187930	-6.203760	6.665302	15.236897	-13.561552	101.909579	17.797109	75.368471	-8.851761	3.973401
1.466667	1.743004	-0.395928	79.717884	0.216023	0.974525	0.452031	-0.570912	4.721322	10.087461	0.539964	0.009424	22.150189	-13.981337	0.000000	-1.417697	-3.925531	9.314592	0.264812	0.004622	26.057011	-7.650856	0.000000	-0.163142	0.143148	2.406184	-0.302970	0.190387	2.556570	-0.268025	0.348050	2.556570	-0.186455	0.348050	2.105411	-0.151493	0.291907	1.955024	-0.093219	0.221736	1.804638	-1.165305	1.619316	13.382471	0.000000	0.000000	11.247694	-6.251480	-11.024418	-4.220096	-11.763966	20.307565	34.782974	77.023359	-6.237476	6.479033	15.338218	-13.441917	102.813591	17.789536	76.266040	-9.581121	3.897361
